<svg xmlns="http://www.w3.org/2000/svg" viewBox="0 0 800 800" width="100%" height="100%">
  <defs>
    <linearGradient id="bg2" x1="0%" y1="0%" x2="100%" y2="100%">
      <stop offset="0%" stop-color="#050814"/>
      <stop offset="100%" stop-color="#0d1424"/>
    </linearGradient>
    <linearGradient id="blueGrad" x1="0%" y1="0%" x2="100%" y2="0%">
      <stop offset="0%" stop-color="#1d4ed8"/>
      <stop offset="100%" stop-color="#38bdf8"/>
    </linearGradient>
    <linearGradient id="cyanGrad" x1="0%" y1="0%" x2="100%" y2="0%">
      <stop offset="0%" stop-color="#0284c7"/>
      <stop offset="100%" stop-color="#06b6d4"/>
    </linearGradient>
    <filter id="glow2" x="-20%" y="-20%" width="140%" height="140%">
      <feGaussianBlur stdDeviation="12" result="blur"/>
      <feComposite in="SourceGraphic" in2="blur" operator="over"/>
    </filter>
  </defs>

  <rect width="800" height="800" fill="url(#bg2)" rx="32"/>

  <!-- Icon: Converging Search Vectors to #1 Rank Node -->
  <g transform="translate(400, 340)">
    <!-- Outer ambient ring -->
    <circle cx="0" cy="0" r="160" stroke="#1e293b" stroke-width="2" stroke-dasharray="8 8" fill="none" opacity="0.6"/>
    
    <!-- Tier 3 Stream: Input Context -->
    <path d="M -140,80 L -40,80 L 20,20 L 100,20" stroke="#334155" stroke-width="8" stroke-linecap="round" fill="none"/>
    
    <!-- Tier 2 Stream: LLM Processing -->
    <path d="M -160,0 L -20,0 L 40,-20 L 120,-20" stroke="url(#cyanGrad)" stroke-width="12" stroke-linecap="round" fill="none"/>

    <!-- Tier 1 Stream: Cited Authority (#1 Rank) -->
    <path d="M -140,-80 L 0,-80 L 60,-40 L 140,-40" stroke="url(#blueGrad)" stroke-width="16" stroke-linecap="round" fill="none" filter="url(#glow2)"/>

    <!-- Focal Citation Diamond -->
    <polygon points="120,-40 145,-65 170,-40 145,-15" fill="#38bdf8" filter="url(#glow2)"/>
    <circle cx="145" cy="-40" r="5" fill="#ffffff"/>
  </g>

  <!-- Typography -->
  <text x="400" y="605" text-anchor="middle" font-family="-apple-system, BlinkMacSystemFont, 'Inter', 'Segoe UI', Roboto, sans-serif" 
        font-size="46" font-weight="700" letter-spacing="6" fill="#f8fafc">
    ANSW<tspan fill="#38bdf8">RANK</tspan>
  </text>
  
  <text x="400" y="650" text-anchor="middle" font-family="-apple-system, BlinkMacSystemFont, 'Inter', 'Segoe UI', Roboto, sans-serif" 
        font-size="13" font-weight="600" letter-spacing="5" fill="#475569">
    AI CITATION &amp; VISIBILITY INTELLIGENCE
  </text>
</svg>